<mxfile host="app.diagrams.net" agent="Mozilla/5.0 (Windows NT 10.0; Win64; x64) AppleWebKit/537.36 (KHTML, like Gecko) Chrome/137.0.0.0 Safari/537.36 Edg/137.0.0.0" version="27.1.4">
  <diagram id="C5RBs43oDa-KdzZeNtuy" name="Page-1">
    <mxGraphModel dx="1404" dy="1919" grid="1" gridSize="10" guides="1" tooltips="1" connect="1" arrows="1" fold="1" page="1" pageScale="1" pageWidth="827" pageHeight="1169" math="0" shadow="0">
      <root>
        <mxCell id="WIyWlLk6GJQsqaUBKTNV-0" />
        <mxCell id="WIyWlLk6GJQsqaUBKTNV-1" parent="WIyWlLk6GJQsqaUBKTNV-0" />
        <mxCell id="eQQbHNW9Zh0sPVYtzJ5o-6" value="objetos&lt;div&gt;-desarrolladores&lt;/div&gt;&lt;div&gt;-gestorProyectos&lt;/div&gt;&lt;div&gt;-administrador&lt;/div&gt;&lt;div&gt;-empresaDesarrollo&lt;/div&gt;&lt;div&gt;&lt;br&gt;&lt;/div&gt;" style="text;html=1;align=center;verticalAlign=middle;resizable=0;points=[];autosize=1;strokeColor=none;fillColor=none;" parent="WIyWlLk6GJQsqaUBKTNV-1" vertex="1">
          <mxGeometry x="35" y="-7" width="130" height="100" as="geometry" />
        </mxCell>
        <mxCell id="eQQbHNW9Zh0sPVYtzJ5o-22" value="" style="group" parent="WIyWlLk6GJQsqaUBKTNV-1" vertex="1" connectable="0">
          <mxGeometry x="30" y="220" width="140" height="80" as="geometry" />
        </mxCell>
        <mxCell id="eQQbHNW9Zh0sPVYtzJ5o-17" value="desarrollador" style="swimlane;fontStyle=0;childLayout=stackLayout;horizontal=1;startSize=20;fillColor=none;horizontalStack=0;resizeParent=1;resizeParentMax=0;resizeLast=0;collapsible=1;marginBottom=0;whiteSpace=wrap;html=1;" parent="eQQbHNW9Zh0sPVYtzJ5o-22" vertex="1">
          <mxGeometry width="140" height="46" as="geometry" />
        </mxCell>
        <mxCell id="eQQbHNW9Zh0sPVYtzJ5o-21" value="" style="html=1;whiteSpace=wrap;" parent="eQQbHNW9Zh0sPVYtzJ5o-22" vertex="1">
          <mxGeometry y="46" width="140" height="34" as="geometry" />
        </mxCell>
        <mxCell id="eQQbHNW9Zh0sPVYtzJ5o-40" value="" style="group" parent="WIyWlLk6GJQsqaUBKTNV-1" vertex="1" connectable="0">
          <mxGeometry x="219" y="280" width="200" height="90" as="geometry" />
        </mxCell>
        <mxCell id="eQQbHNW9Zh0sPVYtzJ5o-37" value="GestorProyectos" style="swimlane;fontStyle=0;childLayout=stackLayout;horizontal=1;startSize=20;fillColor=none;horizontalStack=0;resizeParent=1;resizeParentMax=0;resizeLast=0;collapsible=1;marginBottom=0;whiteSpace=wrap;html=1;movable=1;resizable=1;rotatable=1;deletable=1;editable=1;locked=0;connectable=1;" parent="eQQbHNW9Zh0sPVYtzJ5o-40" vertex="1">
          <mxGeometry width="200" height="50" as="geometry" />
        </mxCell>
        <mxCell id="eQQbHNW9Zh0sPVYtzJ5o-38" value="&lt;div&gt;- area : string&lt;/div&gt;&lt;div&gt;&lt;br&gt;&lt;/div&gt;" style="text;strokeColor=none;fillColor=none;align=left;verticalAlign=top;spacingLeft=4;spacingRight=4;overflow=hidden;rotatable=1;points=[[0,0.5],[1,0.5]];portConstraint=eastwest;whiteSpace=wrap;html=1;movable=1;resizable=1;deletable=1;editable=1;locked=0;connectable=1;" parent="eQQbHNW9Zh0sPVYtzJ5o-37" vertex="1">
          <mxGeometry y="20" width="200" height="30" as="geometry" />
        </mxCell>
        <mxCell id="eQQbHNW9Zh0sPVYtzJ5o-39" value="getter()&lt;div&gt;setter()&lt;/div&gt;" style="html=1;whiteSpace=wrap;movable=1;resizable=1;rotatable=1;deletable=1;editable=1;locked=0;connectable=1;align=left;" parent="eQQbHNW9Zh0sPVYtzJ5o-40" vertex="1">
          <mxGeometry y="50" width="200" height="40" as="geometry" />
        </mxCell>
        <mxCell id="eQQbHNW9Zh0sPVYtzJ5o-41" value="" style="edgeStyle=orthogonalEdgeStyle;rounded=0;orthogonalLoop=1;jettySize=auto;html=1;" parent="WIyWlLk6GJQsqaUBKTNV-1" source="eQQbHNW9Zh0sPVYtzJ5o-37" edge="1">
          <mxGeometry relative="1" as="geometry">
            <mxPoint x="319" y="200" as="targetPoint" />
          </mxGeometry>
        </mxCell>
        <mxCell id="eQQbHNW9Zh0sPVYtzJ5o-48" style="edgeStyle=orthogonalEdgeStyle;rounded=0;orthogonalLoop=1;jettySize=auto;html=1;" parent="WIyWlLk6GJQsqaUBKTNV-1" source="eQQbHNW9Zh0sPVYtzJ5o-43" edge="1">
          <mxGeometry relative="1" as="geometry">
            <mxPoint x="319" y="190" as="targetPoint" />
          </mxGeometry>
        </mxCell>
        <mxCell id="eQQbHNW9Zh0sPVYtzJ5o-43" value="Admin" style="swimlane;fontStyle=0;childLayout=stackLayout;horizontal=1;startSize=20;fillColor=none;horizontalStack=0;resizeParent=1;resizeParentMax=0;resizeLast=0;collapsible=1;marginBottom=0;whiteSpace=wrap;html=1;movable=1;resizable=1;rotatable=1;deletable=1;editable=1;locked=0;connectable=1;container=0;" parent="WIyWlLk6GJQsqaUBKTNV-1" vertex="1">
          <mxGeometry x="475" y="240" width="200" height="50" as="geometry" />
        </mxCell>
        <mxCell id="eQQbHNW9Zh0sPVYtzJ5o-44" value="&lt;div&gt;&lt;br&gt;&lt;/div&gt;" style="text;strokeColor=none;fillColor=none;align=left;verticalAlign=top;spacingLeft=4;spacingRight=4;overflow=hidden;rotatable=1;points=[[0,0.5],[1,0.5]];portConstraint=eastwest;whiteSpace=wrap;html=1;movable=1;resizable=1;deletable=1;editable=1;locked=0;connectable=1;" parent="eQQbHNW9Zh0sPVYtzJ5o-43" vertex="1">
          <mxGeometry y="20" width="200" height="30" as="geometry" />
        </mxCell>
        <mxCell id="eQQbHNW9Zh0sPVYtzJ5o-45" value="" style="html=1;whiteSpace=wrap;movable=1;resizable=1;rotatable=1;deletable=1;editable=1;locked=0;connectable=1;align=left;container=0;" parent="WIyWlLk6GJQsqaUBKTNV-1" vertex="1">
          <mxGeometry x="475" y="290" width="200" height="30" as="geometry" />
        </mxCell>
        <mxCell id="eQQbHNW9Zh0sPVYtzJ5o-63" style="edgeStyle=orthogonalEdgeStyle;rounded=0;orthogonalLoop=1;jettySize=auto;html=1;entryX=0.5;entryY=1;entryDx=0;entryDy=0;" parent="WIyWlLk6GJQsqaUBKTNV-1" source="eQQbHNW9Zh0sPVYtzJ5o-58" edge="1" target="eQQbHNW9Zh0sPVYtzJ5o-51">
          <mxGeometry relative="1" as="geometry">
            <mxPoint x="200" y="660" as="targetPoint" />
          </mxGeometry>
        </mxCell>
        <mxCell id="9xxrq-12cL4ipkR8ukaH-1" style="edgeStyle=orthogonalEdgeStyle;rounded=0;orthogonalLoop=1;jettySize=auto;html=1;" edge="1" parent="WIyWlLk6GJQsqaUBKTNV-1" source="eQQbHNW9Zh0sPVYtzJ5o-17">
          <mxGeometry relative="1" as="geometry">
            <mxPoint x="319" y="190" as="targetPoint" />
            <Array as="points">
              <mxPoint x="320" y="253" />
            </Array>
          </mxGeometry>
        </mxCell>
        <mxCell id="9xxrq-12cL4ipkR8ukaH-4" value="" style="group" vertex="1" connectable="0" parent="WIyWlLk6GJQsqaUBKTNV-1">
          <mxGeometry x="390" y="820" width="140" height="72" as="geometry" />
        </mxCell>
        <mxCell id="eQQbHNW9Zh0sPVYtzJ5o-58" value="EmpresaDesarrollo" style="swimlane;fontStyle=0;childLayout=stackLayout;horizontal=1;startSize=26;fillColor=none;horizontalStack=0;resizeParent=1;resizeParentMax=0;resizeLast=0;collapsible=1;marginBottom=0;whiteSpace=wrap;html=1;" parent="9xxrq-12cL4ipkR8ukaH-4" vertex="1">
          <mxGeometry width="140" height="52" as="geometry" />
        </mxCell>
        <mxCell id="eQQbHNW9Zh0sPVYtzJ5o-62" value="" style="html=1;whiteSpace=wrap;" parent="9xxrq-12cL4ipkR8ukaH-4" vertex="1">
          <mxGeometry y="52" width="140" height="20" as="geometry" />
        </mxCell>
        <mxCell id="9xxrq-12cL4ipkR8ukaH-5" value="" style="group" vertex="1" connectable="0" parent="WIyWlLk6GJQsqaUBKTNV-1">
          <mxGeometry x="330" y="570" width="230" height="159.6875" as="geometry" />
        </mxCell>
        <mxCell id="eQQbHNW9Zh0sPVYtzJ5o-50" value="&lt;i&gt;empresa&lt;/i&gt;" style="swimlane;fontStyle=0;childLayout=stackLayout;horizontal=1;startSize=25;fillColor=none;horizontalStack=0;resizeParent=1;resizeParentMax=0;resizeLast=0;collapsible=1;marginBottom=0;whiteSpace=wrap;html=1;" parent="9xxrq-12cL4ipkR8ukaH-5" vertex="1">
          <mxGeometry width="230" height="125" as="geometry" />
        </mxCell>
        <mxCell id="eQQbHNW9Zh0sPVYtzJ5o-54" value="- nit : entero&lt;div&gt;- nombre : string&lt;/div&gt;&lt;div&gt;- direccion : string&lt;/div&gt;&lt;div&gt;- ciudad : string&lt;/div&gt;&lt;div&gt;- numeroContacto : entero&lt;/div&gt;&lt;div&gt;- correoElectronico : entero&lt;/div&gt;" style="text;html=1;align=left;verticalAlign=middle;resizable=0;points=[];autosize=1;strokeColor=none;fillColor=none;" parent="eQQbHNW9Zh0sPVYtzJ5o-50" vertex="1">
          <mxGeometry y="25" width="230" height="100" as="geometry" />
        </mxCell>
        <mxCell id="eQQbHNW9Zh0sPVYtzJ5o-51" value="getter()&lt;div&gt;setter()&lt;/div&gt;" style="html=1;whiteSpace=wrap;align=left;" parent="9xxrq-12cL4ipkR8ukaH-5" vertex="1">
          <mxGeometry y="125" width="230" height="34.6875" as="geometry" />
        </mxCell>
        <mxCell id="eQQbHNW9Zh0sPVYtzJ5o-12" value="&lt;i&gt;&amp;lt;&amp;lt;Asbtract&amp;gt;&amp;gt;&lt;/i&gt;&lt;div&gt;&lt;i&gt;Empleado&lt;/i&gt;&lt;/div&gt;" style="swimlane;fontStyle=0;childLayout=stackLayout;horizontal=1;startSize=27;fillColor=none;horizontalStack=0;resizeParent=1;resizeParentMax=0;resizeLast=0;collapsible=1;marginBottom=0;whiteSpace=wrap;html=1;movable=1;resizable=1;rotatable=1;deletable=1;editable=1;locked=0;connectable=1;" parent="WIyWlLk6GJQsqaUBKTNV-1" vertex="1">
          <mxGeometry x="230" y="-204" width="200" height="390" as="geometry" />
        </mxCell>
        <mxCell id="eQQbHNW9Zh0sPVYtzJ5o-23" value="" style="group" parent="eQQbHNW9Zh0sPVYtzJ5o-12" vertex="1" connectable="0">
          <mxGeometry y="27" width="200" height="363" as="geometry" />
        </mxCell>
        <mxCell id="eQQbHNW9Zh0sPVYtzJ5o-14" value="- id: int&lt;div&gt;- nombre : string&lt;/div&gt;&lt;div&gt;- horasTrabajadas : int&lt;/div&gt;&lt;div&gt;- numeroTelefono : int&lt;/div&gt;&lt;div&gt;- email : string&lt;/div&gt;&lt;div&gt;- valorHora : float&lt;/div&gt;" style="text;strokeColor=none;fillColor=none;align=left;verticalAlign=top;spacingLeft=4;spacingRight=4;overflow=hidden;rotatable=1;points=[[0,0.5],[1,0.5]];portConstraint=eastwest;whiteSpace=wrap;html=1;movable=1;resizable=1;deletable=1;editable=1;locked=0;connectable=1;" parent="eQQbHNW9Zh0sPVYtzJ5o-23" vertex="1">
          <mxGeometry width="200" height="93.51358024691359" as="geometry" />
        </mxCell>
        <mxCell id="eQQbHNW9Zh0sPVYtzJ5o-16" value="abstract salario() float&lt;div&gt;get id () int&lt;/div&gt;&lt;div&gt;get nombre () string&lt;/div&gt;&lt;div&gt;get horasTrabajadas () int&lt;/div&gt;&lt;div&gt;get numeroTelefono () int&lt;/div&gt;&lt;div&gt;get email () string&lt;/div&gt;&lt;div&gt;get valorHora () float&lt;/div&gt;&lt;div&gt;set id () int&lt;/div&gt;&lt;div&gt;set nombre () string&lt;/div&gt;&lt;div&gt;set horasTrabajadas () int&lt;/div&gt;&lt;div&gt;set numeroTelefono () int&lt;/div&gt;&lt;div&gt;set email () string&lt;/div&gt;&lt;div&gt;set valorHora () float&lt;/div&gt;" style="html=1;whiteSpace=wrap;movable=1;resizable=1;rotatable=1;deletable=1;editable=1;locked=0;connectable=1;align=left;" parent="eQQbHNW9Zh0sPVYtzJ5o-23" vertex="1">
          <mxGeometry y="104.71" width="200" height="258.29" as="geometry" />
        </mxCell>
      </root>
    </mxGraphModel>
  </diagram>
</mxfile>
